# xmcd
#
# Track frame offsets:
#	150
#	24620
#	41610
#	62502
#	80840
#	104352
#	128985
#	156202
#	176362
#	205600
#	223157
#	241770
#	261565
#	283985
#	308572
#
# Disc length: 4488
#
# Revision: 2
# Processed by: cddbd v1.5.1PL0 Copyright (c) Steve Scherf et al.
# Submitted via: audiograbber 1.80
# Normalized: r1:DSETVAR1
#
DISCID=d811860f
DTITLE=Various Artist - Dance R&B Anthems The Platinum Collection
DYEAR=1900
DGENRE=
TTITLE0=Maxi Priest - Close To You
TTITLE1=Soul II Sould - Back To Life (However Do You Want Me)
TTITLE2=Rufus Feat Chaka Khan - Ain't Nobody
TTITLE3=Arrested Development - People Everyday
TTITLE4=PM Dawn - Set Adrift On Memory Bliss
TTITLE5=Monie Love - It's A Shame
TTITLE6=De La Soul - Ring Ring Ring
TTITLE7=Jungle Brothers - What "U" Waitin' 4
TTITLE8=Digital Underground - The Humpty Dance
TTITLE9=Redhead Kingpin and The F.B.I - Do The Right Thing
TTITLE10=Tone Loc - Funky Cold Medina
TTITLE11=Young MC - Bust A Move
TTITLE12=Toni! Tony! Tone! - Feel's Good
TTITLE13=Johnny Kemp - Just Got Paid
TTITLE14=Levert - Casanova
EXTD=
EXTT0=
EXTT1=
EXTT2=
EXTT3=
EXTT4=
EXTT5=
EXTT6=
EXTT7=
EXTT8=
EXTT9=
EXTT10=
EXTT11=
EXTT12=
EXTT13=
EXTT14=
PLAYORDER=
